<mxfile host="app.diagrams.net" modified="2024-01-04T19:56:10.044Z" agent="Mozilla/5.0 (Macintosh; Intel Mac OS X 10_15_7) AppleWebKit/537.36 (KHTML, like Gecko) Chrome/120.0.0.0 Safari/537.36" etag="92UbaOzInIFu6EHt1KVA" version="22.1.16" type="device">
  <diagram id="4nLe7F87myOX8og96cEa" name="Page-1">
    <mxGraphModel dx="1116" dy="1305" grid="0" gridSize="10" guides="1" tooltips="1" connect="1" arrows="1" fold="1" page="1" pageScale="1" pageWidth="827" pageHeight="1169" math="0" shadow="0">
      <root>
        <mxCell id="0" />
        <mxCell id="1" parent="0" />
        <mxCell id="5pkqKnPsq2T1wSugx0l5-1" value="Get Stage" style="outlineConnect=0;fontColor=#232F3E;gradientColor=#F78E04;gradientDirection=north;fillColor=#D05C17;strokeColor=#ffffff;dashed=0;verticalLabelPosition=bottom;verticalAlign=top;align=center;html=1;fontSize=12;fontStyle=0;aspect=fixed;shape=mxgraph.aws4.resourceIcon;resIcon=mxgraph.aws4.lambda;" parent="1" vertex="1">
          <mxGeometry x="347" y="220" width="78" height="78" as="geometry" />
        </mxCell>
        <mxCell id="5pkqKnPsq2T1wSugx0l5-2" value="Get Schedule" style="outlineConnect=0;fontColor=#232F3E;gradientColor=#F78E04;gradientDirection=north;fillColor=#D05C17;strokeColor=#ffffff;dashed=0;verticalLabelPosition=bottom;verticalAlign=top;align=center;html=1;fontSize=12;fontStyle=0;aspect=fixed;shape=mxgraph.aws4.resourceIcon;resIcon=mxgraph.aws4.lambda;" parent="1" vertex="1">
          <mxGeometry x="546" y="220" width="78" height="78" as="geometry" />
        </mxCell>
        <mxCell id="5pkqKnPsq2T1wSugx0l5-3" value="Send Telegram &lt;br&gt;Notifications" style="outlineConnect=0;fontColor=#232F3E;gradientColor=#F78E04;gradientDirection=north;fillColor=#D05C17;strokeColor=#ffffff;dashed=0;verticalLabelPosition=bottom;verticalAlign=top;align=center;html=1;fontSize=12;fontStyle=0;aspect=fixed;shape=mxgraph.aws4.resourceIcon;resIcon=mxgraph.aws4.lambda;" parent="1" vertex="1">
          <mxGeometry x="346" y="590" width="78" height="78" as="geometry" />
        </mxCell>
        <mxCell id="5pkqKnPsq2T1wSugx0l5-4" value="EventBridge Schedule&amp;nbsp;- 1 hour" style="outlineConnect=0;fontColor=#232F3E;gradientColor=none;fillColor=#BC1356;strokeColor=none;dashed=0;verticalLabelPosition=bottom;verticalAlign=top;align=center;html=1;fontSize=12;fontStyle=0;aspect=fixed;pointerEvents=1;shape=mxgraph.aws4.event_time_based;" parent="1" vertex="1">
          <mxGeometry x="346" y="50" width="78" height="78" as="geometry" />
        </mxCell>
        <mxCell id="5pkqKnPsq2T1wSugx0l5-5" value="" style="endArrow=classic;html=1;" parent="1" source="5pkqKnPsq2T1wSugx0l5-4" target="5pkqKnPsq2T1wSugx0l5-1" edge="1">
          <mxGeometry width="50" height="50" relative="1" as="geometry">
            <mxPoint x="346" y="390" as="sourcePoint" />
            <mxPoint x="387" y="200" as="targetPoint" />
          </mxGeometry>
        </mxCell>
        <mxCell id="5pkqKnPsq2T1wSugx0l5-6" value="" style="outlineConnect=0;dashed=0;verticalLabelPosition=bottom;verticalAlign=top;align=center;html=1;shape=mxgraph.aws3.dynamo_db;fillColor=#2E73B8;gradientColor=none;" parent="1" vertex="1">
          <mxGeometry x="349" y="410" width="72" height="81" as="geometry" />
        </mxCell>
        <mxCell id="5pkqKnPsq2T1wSugx0l5-7" value="" style="endArrow=classic;html=1;" parent="1" source="5pkqKnPsq2T1wSugx0l5-1" target="5pkqKnPsq2T1wSugx0l5-6" edge="1">
          <mxGeometry width="50" height="50" relative="1" as="geometry">
            <mxPoint x="346" y="560" as="sourcePoint" />
            <mxPoint x="387" y="420" as="targetPoint" />
          </mxGeometry>
        </mxCell>
        <mxCell id="5pkqKnPsq2T1wSugx0l5-8" value="DynamoDB Streams" style="endArrow=classic;html=1;" parent="1" source="5pkqKnPsq2T1wSugx0l5-6" target="5pkqKnPsq2T1wSugx0l5-3" edge="1">
          <mxGeometry width="50" height="50" relative="1" as="geometry">
            <mxPoint x="424" y="491" as="sourcePoint" />
            <mxPoint x="424" y="603" as="targetPoint" />
          </mxGeometry>
        </mxCell>
        <mxCell id="5pkqKnPsq2T1wSugx0l5-9" value="EventBridge Schedule&amp;nbsp;- 24 hours" style="outlineConnect=0;fontColor=#232F3E;gradientColor=none;fillColor=#BC1356;strokeColor=none;dashed=0;verticalLabelPosition=bottom;verticalAlign=top;align=center;html=1;fontSize=12;fontStyle=0;aspect=fixed;pointerEvents=1;shape=mxgraph.aws4.event_time_based;" parent="1" vertex="1">
          <mxGeometry x="543" y="52" width="78" height="78" as="geometry" />
        </mxCell>
        <mxCell id="5pkqKnPsq2T1wSugx0l5-10" value="" style="endArrow=classic;html=1;" parent="1" source="5pkqKnPsq2T1wSugx0l5-9" target="5pkqKnPsq2T1wSugx0l5-2" edge="1">
          <mxGeometry width="50" height="50" relative="1" as="geometry">
            <mxPoint x="395" y="138" as="sourcePoint" />
            <mxPoint x="395" y="230" as="targetPoint" />
          </mxGeometry>
        </mxCell>
        <mxCell id="5pkqKnPsq2T1wSugx0l5-11" value="" style="endArrow=classic;html=1;" parent="1" source="5pkqKnPsq2T1wSugx0l5-2" target="5pkqKnPsq2T1wSugx0l5-6" edge="1">
          <mxGeometry width="50" height="50" relative="1" as="geometry">
            <mxPoint x="395" y="308" as="sourcePoint" />
            <mxPoint x="395" y="420" as="targetPoint" />
          </mxGeometry>
        </mxCell>
        <mxCell id="5pkqKnPsq2T1wSugx0l5-12" value="1" style="text;html=1;strokeColor=none;fillColor=none;align=center;verticalAlign=middle;whiteSpace=wrap;rounded=0;" parent="1" vertex="1">
          <mxGeometry x="266" y="240" width="40" height="20" as="geometry" />
        </mxCell>
        <mxCell id="5pkqKnPsq2T1wSugx0l5-13" value="2" style="text;html=1;strokeColor=none;fillColor=none;align=center;verticalAlign=middle;whiteSpace=wrap;rounded=0;" parent="1" vertex="1">
          <mxGeometry x="266" y="510" width="40" height="20" as="geometry" />
        </mxCell>
        <mxCell id="5pkqKnPsq2T1wSugx0l5-15" value="3" style="text;html=1;strokeColor=none;fillColor=none;align=center;verticalAlign=middle;whiteSpace=wrap;rounded=0;" parent="1" vertex="1">
          <mxGeometry x="666" y="249" width="40" height="20" as="geometry" />
        </mxCell>
        <mxCell id="5pkqKnPsq2T1wSugx0l5-17" value="4" style="text;html=1;strokeColor=none;fillColor=none;align=center;verticalAlign=middle;whiteSpace=wrap;rounded=0;" parent="1" vertex="1">
          <mxGeometry x="70" y="666" width="40" height="20" as="geometry" />
        </mxCell>
        <mxCell id="5pkqKnPsq2T1wSugx0l5-18" value="EventBridge Schedule&amp;nbsp;- 2 hours" style="outlineConnect=0;fontColor=#232F3E;gradientColor=none;fillColor=#BC1356;strokeColor=none;dashed=0;verticalLabelPosition=bottom;verticalAlign=top;align=center;html=1;fontSize=12;fontStyle=0;aspect=fixed;pointerEvents=1;shape=mxgraph.aws4.event_time_based;" parent="1" vertex="1">
          <mxGeometry x="150" y="588" width="78" height="78" as="geometry" />
        </mxCell>
        <mxCell id="5pkqKnPsq2T1wSugx0l5-21" value="" style="endArrow=classic;html=1;" parent="1" source="5pkqKnPsq2T1wSugx0l5-18" edge="1">
          <mxGeometry width="50" height="50" relative="1" as="geometry">
            <mxPoint x="556" y="306.3425" as="sourcePoint" />
            <mxPoint x="341" y="624" as="targetPoint" />
          </mxGeometry>
        </mxCell>
        <mxCell id="5pkqKnPsq2T1wSugx0l5-23" value="" style="shape=image;verticalLabelPosition=bottom;labelBackgroundColor=#ffffff;verticalAlign=top;aspect=fixed;imageAspect=0;image=data:image/jpeg,/9j/4AAQSkZJRgABAQAAAQABAAD/2wCEAAkGBw8NEBMTEA8QDw0SFhURFRAQFhAPDRcVFhEYGRUYFRUYHSggGCYlHxUVIjIhJykrLi4uFx8zODMtNygtLisBCgoKDg0OGxAQGzAmHyUtLS0rLS8tLTAvLSstLS0tLy0vLy0tLS0tLS0tLS0tLS8tLS0tLS0uLS0tLS0tLS0tLf/AABEIAOEA4QMBIgACEQEDEQH/xAAbAAEAAgMBAQAAAAAAAAAAAAAAAQIEBgcFA//EAD0QAAIBAgIGBwUHAgcBAAAAAAABAgMRBCEFBhIxQVETImFxgZGhMkJSscEHFDNicpLRgvAVIyRDorLh0v/EABoBAQACAwEAAAAAAAAAAAAAAAAEBQECAwb/xAAxEQACAQEDCgcBAAIDAAAAAAAAAQIDBBEhBRIxMkFRYZGhsRMicYHR4fDBFSMUM/H/2gAMAwEAAhEDEQA/AO4gAAAAAAAAArJpK7dkuL3GtaW1to0rxpLpp/FupLx97w8zenTnUd0VecqtaFKOdN3ftm82c8XHayYShk6u3Je7T6z893qaJpHTGIxX4tRuPwR6sfJb/G5glhTyetM37L5KmtlZ6Kcfd/Gzn7G24rXab/CoxS5zbk/JWt5s8nEazYyp/vOK5RUY+tr+p5IJcbNSjoiu5AnbK89M37YdjKqaSrz9qvUl3yk/qY0pt7233tsgHa5LQiO5SelhSa3NruMmnpCtH2a1SP6ZSXyZjANJhSa0M9WhrHjKe6vKS5SUZ+rVz1MNrrVj+JRjNc4txl65GrA5Ss9KWmK7djvC114as37497zouB1pwtbLbdOfwzVvVXXqe1Cakk0009zWa8zkBlYDSNbDO9KpKHZvT708mRKmT09R8yfSytJYVI38V+/qOsA1PRWuEJ2jiI9HL44XlDxW9eps9KpGaUoyUovNSi04vuZX1KU6buki2o16dZXwd/fkfUAHM7AAAAAAAAAAAAAAAA83S2lqWEhtVJZv2YLOUu5fXcYWsesEMGtmNp12soe7Fc5fxxOeYvFVK83OpJzm97fyXJdhMs1kdTzSwj1ZXWy3qj5IYy7fL4cz0tM6er4ttN7FHhTjnHxfvfLsPJALeMYxV0VcignUlUlnSd7LAgGxoWBAALAgAEgAAAAAAAAGdorS9bCSvTl1Xvpyzi/Dh3owQYlFSVzV6MxlKLzou5nS9C6co4xdXqVVvpy9rvXxI9c4/SqShJSi3GSd1JZNPsZvWrmsaxFqdW0a/B7oz/h9nlyKm02Nw80NHYvrHlBVLoVMJd/vgbMACCWgAAAAAAAAAPA1m0/HBw2Y2lXkurHglzl9FxMzTWlIYSk6ks3ujHjJvh9X2I5bi8VOvOVSpLanJ3b+i5JbiZZLN4jzpaF1ZXW+2eCsyGs+i+d3MrVqynJynJynJ3cnm2yoBcnnSwIABYEAAsCpIBYFSQCwKkgEklSQCQQSAAAAAnbsfNbwAYN71W0/94SpVX/npZSfvpfVeu/mbOcepzcWpRbjJNNNZNNbmjpGrumFjKWdlWjlOPya7H/JU2yzZnnjo28D0GT7Z4n+uetse/77nsgAgFoAAACspJK7dks23uLGqa96V6GiqUHapV3tb1Bb/Pd3XN6dN1JKK2nKtVjSg5y0L9carrLpd4yu2n/kw6sF2cX4/Kx5JQsegjFRiorQjyc5ynJylpZYFSTY1LAqSASSVJAJJKkgEklSQCSSpIBJJUkAkkqSASSVJAJBBIAMzRGkJYWrGpHhlKPxJ71/fFIwwYlFSVzMxk4tSi8Udcw9eNWEZwd4SSkn2M+xpuo2k/aw8nzlT+q+puRQVqbpzcf1x6uzVlWpqa9/XaAAcjuQci0/pF4vEVKl+q3sw/THKPn9WdB1wx33fB1Gnac/8uPfLf8A8VJ+Byws8n08HN+i/pSZWrYxpr1f85Y9CxJUksinJJKkgEklSQCSSpIBJJUkAkkqSASSVABYGTgNGV8T+FTlJfF7K/c8jZtH6l8a9W/5Kf1k/wCDlUrQp6z+TvRs1WrjBYb9nP4vZqCzy3t5W4ntaP1ZxVezcOih8c+q/Bb/AJG84DRlDDfhU4xfxe1Pxk8zLIVS3PRBc/gs6WS0sajv4L509EaZjNTZQpuVOt0k4q+w47N7cE7s1ZM63Vmoxcnuim33JXORuV8918ztY6s6ilnbPsjZQs9Ok45iuvv37Lt7e8sCpJMK4sCAAffB4qVCpCpH2oNSXbbevFXXidXw9aNWEZxd4zSkn2NXRyI33UfGdJh3TbvKlK3hLNet14EC3074qe7s/vuWuSq2bN03tx918rsbMACpL40H7SMVepRpJ5KMptdsnaP/AFfmaaexrniOkx1XlFxgv6Yq/q2eKX1njm0orh3PK2yefXk+N3LAsSVJO5GJJKgAsSVABYEAAsCtz1NHaCxWJs4UmoP35dWHg3m/BM1lJRV8ncbQhKbuir3wPOLUqcpvZhGUpPdGKbl5I3bR+pVKOdeo6v5I3jDz3v0NkwmDpUFalTjTX5Uk33veyJUtsFhHHt+9iwpZMqSxm7lzfx1Zouj9UMTVs6mzQh+brS/at3i0bNo/VjC0LNw6ap8dTrLwW49oEKpaak9t3oWdKxUaeKV73vH/AMIStkslyW4Skkrt2R8K+LjDJZy5cPEx6VOVZ3k+r5eRwuwJTeJnwmpK6d0SRGKSsskSYMnmay4jo8JVlxcdlf1tR+TZzQ3bX7EWpU4fFJy8Ix/mSNHLawxup372UGU531s3cu+Pa4uCATCuLAqSAWNg1HxWxitnhUTj4rrL5S8zXTM0PX6LEU5/DJX7nKz9GznVhn05R4M62ep4dWMuK5bTrQAPO3nsM1nF9MVdvEVpfFUm/ObsYgqSu2+bb82QekSuSR4ybvk2WIIBk1LgqTcyCwPZ0XqxisSk1Doqb9+peN12R3s2nRupeHpWdVyry7epDyWb8WR6lppw0u98P1xKo2KtVxSuW94fZoeEwtSvLZpU51JcoJu3fy8TZtHak1Z2decaS+GNpS8+HqbzQowpxUYRjCK3Riko+SLEKpbpywjh1+uhZ0cl044zed0Xz1PL0dq/hcNZwppzXvz68/C+S8Ej1ACJKTk72yxhCMFmxVy4AAxa+NSyjm+fD/0wZvPvUqKKu3YwK+Mcsl1Y+p8Jzcndu7MvCYTjLwX8m1yWk1vbKYTCbWcvZ5cz0UgDVu82SuAJsSkYMmga94jaxMYcKcV5ybb9LGuGdp/EdLiq0uDk0u5ZL0ijAL6jHNpxXA8raZ59aUuL+F0RJJUk6HEkkqSASQ3y3gkIw1ejp/8AjS7Ac9+/y5grf+Ci8/yrPEkrNrk7EGVpansV60fhqTj5TaMQsE70mUslmyaLAgGTBYz9BYilSxFOdaO1Si7tW2rZOztxs7PwPPJMNXppmYycWpLZidlwmNpV1elUhUX5Wn5rgfY4rTm4u8W4yW5xbUvNHuYDW3GUcnU6WPw1FtP92T82yunYJLVfPD67FzTyrF/9kbuKx++504GpYHXqjLKtSnS/NDrw8sn8zYMHpXD4hXpVoz477TXfF5ryIk6U4ayLClaKVTUkv7yePQzT51q8Yb3ny4mLXxvCH7v4MJu+/NmFHedHLcfeviZT7I8l9T4CKbyWbPTwuFUM3nL0Rm9I10lcJhLZy38FyMomxNjS83IsTYmxJg2uIsfHGV1SpTm90FKXlFs+54Wulfo8HUtk5uMF4yu/RSNoRz5KO9nOrPw4SnuTfQ5pe+/eWKFj0B5FEklSQZJJKkgEk3KkSeQRhu5GZ90fIG/f4D2Ikr/+dEuf8XI0HXHD9Hjq64SkpL+qKb9bnim5/aZhdmrSqJZTjKL74u69JehphJs8s6lF8O2BX2uGZXnHj3x/pYFQdiOWBUsACxUAFjIwOI6GrCfwNPw4+lzFLAJtO9HT079xaEXJpLNs83V/E9Lhqb4pbL71kvS3mZeJdo9t0Urjmtxew9TGalFSWhq89vC4ZQXOXP8AgyLHkYDS3u1fCf8A9fyews9270OLTTxO0WmsASCTU2IJJsLC8yRY0v7R8RlRp83Kb8LRXzkbscy18xXSYyUL5U1CPi1tP5+hJsUb6q4XsgZSnm2drfcv7/DwCSoLo84WBAALAgAFjK0VQ6WvTh8Uorw2lf0uYhsOouG6TFqVsqalLxtZf9vQ0qzzIOW5HWhDxKsY72uW3odLAB5y49hnM1zXnAdPg5NK86TVVdyyl6NvwOVHdJwUk01eLTTT3NPecY0zo94SvUpP3JOz5p5xfk16lpYKmDh7/JQ5Wo3SjUW3B/z+8jCABYlQAAACxUAFgVABtWpWJzqU3xSmvDKXzRseL9nxNC0HiehxFOV8lLZfc8n87+BvuM3IrbVG6pfvLuwVM6hduw/piEy1gWBS2rzi91Ne12tcjC0npGOHjnnN+zH6vkjUMRXlVk5Td5P+7LkbUaHiYy0dzW02vwsIa3b9uZ2LRekqOLht0Z7S4rdOL5SXAzbHFNH4+rhpqpSm4TXLc1ykuK7DpOrutNLGWhO1LE/A/Yl+l/Tf3ke0WSVPzRxXYkWTKEavllhLo/TjwNiJsSCGWRBxnSuJ6avUqXupzlJdzk9n0sdY0ziehw9WfGMJNd9rL1sccRZZPjrS9ilyvPUj6v8AdSwIBZlMWBAALAgAEnQfs+wahQnVazqysu6Da+bfkaBQoyqzjCCvObUYrtbsjseAw0aFKFOPswiortst/jvIFvqXQUFt7L7uLTJVLOqOb2Lq/rT6mSACpL8Gk/aLonpIRxEF1qfUnbjFvqvwb/5dhux8q1KNSLjJKUJJxae5pqzR0pVHTmpI416KrU3B7e5wwHpawaKlgq8qbu4e1Tk/ei93itz7UeaX8ZKSUloZ5OUXCTjLStIABkwAAAAAADYp60zcEuiW2lba2nst87W9Lmug0nTjPWR0p1p078x3Xn1r1pVJOU3tSe9nzIBuc278WWJT8/UgAG66ua5yhani25R3Ktvmv1L3l27+/eb5SqRnFSjJSg1dSi04tc00cOPR0ZpvFYRWo1XGDz2HaUL9z3eBBr2JTedDB7tn0WllylKms2pit+37XX1N7+0LFqnhNi/WqyircdlPab9IrxOamTpHSNbFT261Rzlay3RSXJJZIxiRZ6XhQzWRLXaFXq56WGhehJJUHYjFiSpIBYgqZWj8HPE1YUqa683a/BLjJ9iWYbuV7MpNu5aTafs+0XtTliJLqwvGF+Mmus/BO39T5HQDE0dg4YalGnBWhBWXN82+1u78TLKGvV8Wbly9D1VloeDTUNu31/YewABxJAAAB4ms+hI46i45KtG8qcnz4xfY93k+ByWrSlTk4zi4zi3GUXvTW9M7qalrnq196XTUl/qYrOKy24r6rhz3crTrJacx5ktHYq8oWPxF4kNZaeK+VsOaANWyas1k08mn2gtjz4AAMgAAAAAAAAAAAAsVABJJUsACSAASSVJuAWX98zp2p+gvudPaqL/UVFn+VcF38X/4eVqVqzs7OIrxtPfTpvhym+3kuG/fa29FXbLRnf646NvwXmTrG4/7Z6di3cfV7N3uAAV5bgAAAAAAAAGo62aprE3q0Eo4jfKOSjU/h9vHjzOb1KcoScZRcZxdnGSaknyaO7Hg6xat0cervqV0rRqxWfdJcV6onWe15nlno37irtmT/E89PW2rf8M5KDP0voevgp7NWFk/Zms4y/S/pvMAtU01eihlFxbjJXMAAyYAAAAAAAAAAAAAAABJBk4DAVsVNQowc59nspc5Pcl3mG0lewk27lpMdf3zN91S1S2XGtiY9ffCi+HJzXPs4cc8l6WreqdLB2nO1XE/F/tx/Sufa/Q2grLTbM7y09G8vLHk7N89XTsW713vhs4gAFeW4AAAAAAAAAAAAAAB8MThqdaLhUhGcHvjJJxNJ03qHvlhZ249DN5f0y+j8zfQdadadN+VnCtZqdZXTXvt5/kcOxuCq4eWzWpypz5SVr9z3PvR8DuOJw9OtFxqQjUg98ZpSj5M1nSOo2Fq3dKU8PL8vXh+15+TRYU7fF66u6/fcqK2Spxxpu/1wfw+hzQG043UbGU79G4V4/llsT8pWXzPExGh8VR/EoVY9uzJx/csiXCtTnqyXP5IFSz1aetF8sOZgghtLv5cSTpccE09AAI2lzQDaRIMvDaLxFb8OjUn2xjPZ87WPawWpGNq+3GNFc5yUn5K/wBDSdWENZpHanQq1NWLfthz0GtH0oUZ1ZKFOEqk3ujBNy8kdC0fqFh4Wdec6z5K9OHo235m0YPA0qEdmlThTjyikr9/PxIlS3wWor+i/exPpZKqS12l1fx1ZouhtRJytLFS2Ib+ii1Kb/VLdHwv4G84DAUsNBQpU404Lgt7fNve32sywV9WvOprP22FvQstOivIsd+39wVyAAOJIAAAAAAAAAAAAAAAAAAAAAAAAAADNo6Tw9ZN3gzmelPaYBY2HQU2VT5YD2kdH1X4dxIN7dqnPJWsbKACqRey0gAGTUAAAAAAAAAAAAAAA//Z;" parent="1" vertex="1">
          <mxGeometry x="348.5" y="793" width="75" height="75" as="geometry" />
        </mxCell>
        <mxCell id="5pkqKnPsq2T1wSugx0l5-24" value="" style="endArrow=classic;html=1;entryX=0.5;entryY=0;entryDx=0;entryDy=0;" parent="1" source="5pkqKnPsq2T1wSugx0l5-3" edge="1">
          <mxGeometry width="50" height="50" relative="1" as="geometry">
            <mxPoint x="395" y="501" as="sourcePoint" />
            <mxPoint x="387.5" y="780" as="targetPoint" />
          </mxGeometry>
        </mxCell>
        <mxCell id="5pkqKnPsq2T1wSugx0l5-26" value="5" style="text;html=1;strokeColor=none;fillColor=none;align=center;verticalAlign=middle;whiteSpace=wrap;rounded=0;" parent="1" vertex="1">
          <mxGeometry x="266" y="710" width="40" height="20" as="geometry" />
        </mxCell>
        <mxCell id="nJSjbLgk-gLHyeidAVKX-1" value="Flask web-app&lt;br&gt;" style="verticalLabelPosition=bottom;aspect=fixed;html=1;shape=mxgraph.salesforce.web;" vertex="1" parent="1">
          <mxGeometry x="564" y="601" width="60" height="47.400000000000006" as="geometry" />
        </mxCell>
        <mxCell id="nJSjbLgk-gLHyeidAVKX-2" value="Flask App" style="outlineConnect=0;fontColor=#232F3E;gradientColor=#F78E04;gradientDirection=north;fillColor=#D05C17;strokeColor=#ffffff;dashed=0;verticalLabelPosition=bottom;verticalAlign=top;align=center;html=1;fontSize=12;fontStyle=0;aspect=fixed;shape=mxgraph.aws4.resourceIcon;resIcon=mxgraph.aws4.lambda;" vertex="1" parent="1">
          <mxGeometry x="549" y="409" width="78" height="78" as="geometry" />
        </mxCell>
        <mxCell id="nJSjbLgk-gLHyeidAVKX-3" value="" style="endArrow=classic;html=1;" edge="1" parent="1">
          <mxGeometry width="50" height="50" relative="1" as="geometry">
            <mxPoint x="547" y="447" as="sourcePoint" />
            <mxPoint x="432" y="447" as="targetPoint" />
          </mxGeometry>
        </mxCell>
      </root>
    </mxGraphModel>
  </diagram>
</mxfile>
